<?xml version="1.0" encoding="UTF-8" standalone="no"?>
<!-- Generator: Gravit.io -->
<svg xmlns="http://www.w3.org/2000/svg" xmlns:xlink="http://www.w3.org/1999/xlink" style="isolation:isolate" viewBox="493.889 210.183 334.431 99.906" width="334.431pt" height="99.906pt"><defs><clipPath id="_clipPath_5jeM7dJPgvE3VEF2Mf4ZUJxuAokPUonY"><rect x="493.889" y="210.183" width="334.431" height="99.906"/></clipPath></defs><g clip-path="url(#_clipPath_5jeM7dJPgvE3VEF2Mf4ZUJxuAokPUonY)"><path d=" M 498.869 275.131 L 493.889 275.131 L 493.889 232.299 L 498.869 232.299 L 498.869 275.131 L 498.869 275.131 Z  M 536.721 275.131 L 531.857 275.131 L 531.857 254.359 L 531.857 254.359 Q 531.857 250.434 530.07 248.5 L 530.07 248.5 L 530.07 248.5 Q 528.283 246.566 524.475 246.566 L 524.475 246.566 L 524.475 246.566 Q 519.436 246.566 517.092 249.291 L 517.092 249.291 L 517.092 249.291 Q 514.748 252.016 514.748 258.285 L 514.748 258.285 L 514.748 275.131 L 509.885 275.131 L 509.885 243.021 L 513.84 243.021 L 514.631 247.416 L 514.865 247.416 L 514.865 247.416 Q 516.359 245.043 519.055 243.739 L 519.055 243.739 L 519.055 243.739 Q 521.75 242.436 525.061 242.436 L 525.061 242.436 L 525.061 242.436 Q 530.861 242.436 533.791 245.233 L 533.791 245.233 L 533.791 245.233 Q 536.721 248.031 536.721 254.184 L 536.721 254.184 L 536.721 275.131 L 536.721 275.131 Z  M 557.082 271.703 L 557.082 271.703 L 557.082 271.703 Q 558.371 271.703 559.572 271.513 L 559.572 271.513 L 559.572 271.513 Q 560.773 271.322 561.477 271.117 L 561.477 271.117 L 561.477 274.838 L 561.477 274.838 Q 560.686 275.219 559.147 275.468 L 559.147 275.468 L 559.147 275.468 Q 557.609 275.717 556.379 275.717 L 556.379 275.717 L 556.379 275.717 Q 547.063 275.717 547.063 265.902 L 547.063 265.902 L 547.063 246.801 L 542.463 246.801 L 542.463 244.457 L 547.063 242.436 L 549.113 235.58 L 551.926 235.58 L 551.926 243.021 L 561.242 243.021 L 561.242 246.801 L 551.926 246.801 L 551.926 265.697 L 551.926 265.697 Q 551.926 268.598 553.303 270.15 L 553.303 270.15 L 553.303 270.15 Q 554.68 271.703 557.082 271.703 Z  M 581.457 275.717 L 581.457 275.717 L 581.457 275.717 Q 574.338 275.717 570.222 271.381 L 570.222 271.381 L 570.222 271.381 Q 566.105 267.045 566.105 259.34 L 566.105 259.34 L 566.105 259.34 Q 566.105 251.576 569.929 247.006 L 569.929 247.006 L 569.929 247.006 Q 573.752 242.436 580.197 242.436 L 580.197 242.436 L 580.197 242.436 Q 586.232 242.436 589.748 246.405 L 589.748 246.405 L 589.748 246.405 Q 593.264 250.375 593.264 256.879 L 593.264 256.879 L 593.264 259.955 L 571.145 259.955 L 571.145 259.955 Q 571.291 265.609 574.001 268.539 L 574.001 268.539 L 574.001 268.539 Q 576.711 271.469 581.633 271.469 L 581.633 271.469 L 581.633 271.469 Q 586.818 271.469 591.887 269.301 L 591.887 269.301 L 591.887 273.637 L 591.887 273.637 Q 589.309 274.75 587.009 275.233 L 587.009 275.233 L 587.009 275.233 Q 584.709 275.717 581.457 275.717 Z  M 580.139 246.508 L 580.139 246.508 L 580.139 246.508 Q 576.271 246.508 573.972 249.027 L 573.972 249.027 L 573.972 249.027 Q 571.672 251.547 571.262 256 L 571.262 256 L 588.049 256 L 588.049 256 Q 588.049 251.4 585.998 248.954 L 585.998 248.954 L 585.998 248.954 Q 583.947 246.508 580.139 246.508 Z  M 606.418 229.545 L 606.418 275.131 L 601.555 275.131 L 601.555 229.545 L 606.418 229.545 L 606.418 229.545 Z  M 621.594 229.545 L 621.594 275.131 L 616.73 275.131 L 616.73 229.545 L 621.594 229.545 L 621.594 229.545 Z  M 636.77 243.021 L 636.77 275.131 L 631.906 275.131 L 631.906 243.021 L 636.77 243.021 L 636.77 243.021 Z  M 631.496 234.32 L 631.496 234.32 L 631.496 234.32 Q 631.496 232.65 632.316 231.874 L 632.316 231.874 L 632.316 231.874 Q 633.137 231.098 634.367 231.098 L 634.367 231.098 L 634.367 231.098 Q 635.539 231.098 636.389 231.889 L 636.389 231.889 L 636.389 231.889 Q 637.238 232.68 637.238 234.32 L 637.238 234.32 L 637.238 234.32 Q 637.238 235.961 636.389 236.767 L 636.389 236.767 L 636.389 236.767 Q 635.539 237.572 634.367 237.572 L 634.367 237.572 L 634.367 237.572 Q 633.137 237.572 632.316 236.767 L 632.316 236.767 L 632.316 236.767 Q 631.496 235.961 631.496 234.32 Z " fill="rgb(0,0,0)"/><path d=" M 661.255 272.212 L 661.255 272.212 L 661.255 272.212 Q 659.173 273.613 656.951 274.474 L 656.951 274.474 L 656.951 274.474 Q 654.729 275.335 652.687 275.335 L 652.687 275.335 L 652.687 275.335 Q 651.165 275.335 649.644 274.895 L 649.644 274.895 L 649.644 274.895 Q 648.122 274.454 646.881 273.433 L 646.881 273.433 L 646.881 273.433 Q 645.64 272.412 644.859 270.73 L 644.859 270.73 L 644.859 270.73 Q 644.078 269.049 644.078 266.566 L 644.078 266.566 L 644.078 266.566 Q 644.078 263.563 645.159 260.801 L 645.159 260.801 L 645.159 260.801 Q 646.24 258.038 648.042 255.656 L 648.042 255.656 L 648.042 255.656 Q 649.844 253.273 652.166 251.312 L 652.166 251.312 L 652.166 251.312 Q 654.488 249.35 656.951 247.968 L 656.951 247.968 L 656.951 247.968 Q 659.413 246.587 661.855 245.826 L 661.855 245.826 L 661.855 245.826 Q 664.298 245.065 666.3 245.065 L 666.3 245.065 L 666.3 245.065 Q 668.262 245.065 669.643 245.486 L 669.643 245.486 L 669.643 245.486 Q 671.024 245.906 671.985 246.527 L 671.985 246.527 L 671.985 246.527 Q 672.946 247.147 673.507 247.868 L 673.507 247.868 L 673.507 247.868 Q 674.067 248.589 674.428 249.229 L 674.428 249.229 L 676.59 246.387 L 677.911 247.268 L 677.911 247.268 Q 677.911 247.308 677.271 248.529 L 677.271 248.529 L 677.271 248.529 Q 676.63 249.75 675.589 251.792 L 675.589 251.792 L 675.589 251.792 Q 674.548 253.834 673.167 256.577 L 673.167 256.577 L 673.167 256.577 Q 671.785 259.319 670.284 262.402 L 670.284 262.402 L 670.284 262.402 Q 668.782 265.485 667.241 268.769 L 667.241 268.769 L 667.241 268.769 Q 665.699 272.052 664.298 275.215 L 664.298 275.215 L 664.298 275.215 Q 667.941 273.133 670.704 271.211 L 670.704 271.211 L 670.704 271.211 Q 673.467 269.289 675.649 267.327 L 675.649 267.327 L 675.649 267.327 Q 677.831 265.365 679.593 263.243 L 679.593 263.243 L 679.593 263.243 Q 681.354 261.121 682.996 258.639 L 682.996 258.639 L 684.478 259.76 L 684.478 259.76 Q 682.876 262.362 681.014 264.584 L 681.014 264.584 L 681.014 264.584 Q 679.152 266.807 676.65 268.989 L 676.65 268.989 L 676.65 268.989 Q 674.147 271.171 670.804 273.473 L 670.804 273.473 L 670.804 273.473 Q 667.461 275.775 662.856 278.538 L 662.856 278.538 L 662.856 278.538 Q 659.053 287.867 655.529 293.973 L 655.529 293.973 L 655.529 293.973 Q 652.006 300.079 648.863 303.643 L 648.863 303.643 L 648.863 303.643 Q 645.72 307.206 643.017 308.647 L 643.017 308.647 L 643.017 308.647 Q 640.314 310.089 638.152 310.089 L 638.152 310.089 L 638.152 310.089 Q 637.271 310.089 636.25 309.869 L 636.25 309.869 L 636.25 309.869 Q 635.229 309.648 634.349 309.008 L 634.349 309.008 L 634.349 309.008 Q 633.468 308.367 632.887 307.246 L 632.887 307.246 L 632.887 307.246 Q 632.307 306.125 632.307 304.363 L 632.307 304.363 L 632.307 304.363 Q 632.307 301 634.088 297.717 L 634.088 297.717 L 634.088 297.717 Q 635.87 294.434 639.253 291.19 L 639.253 291.19 L 639.253 291.19 Q 642.637 287.947 647.542 284.744 L 647.542 284.744 L 647.542 284.744 Q 652.446 281.541 658.652 278.298 L 658.652 278.298 L 658.652 278.298 Q 659.413 276.576 660.054 275.035 L 660.054 275.035 L 660.054 275.035 Q 660.694 273.493 661.255 272.212 Z  M 663.337 267.808 L 663.337 267.808 L 663.337 267.808 Q 664.418 265.766 665.479 263.784 L 665.479 263.784 L 665.479 263.784 Q 666.54 261.802 667.681 259.82 L 667.681 259.82 L 667.681 259.82 Q 668.822 257.838 670.124 255.756 L 670.124 255.756 L 670.124 255.756 Q 671.425 253.674 673.026 251.432 L 673.026 251.432 L 673.026 251.432 Q 672.946 250.831 672.626 250.19 L 672.626 250.19 L 672.626 250.19 Q 672.306 249.55 671.745 249.009 L 671.745 249.009 L 671.745 249.009 Q 671.185 248.469 670.304 248.108 L 670.304 248.108 L 670.304 248.108 Q 669.423 247.748 668.222 247.748 L 668.222 247.748 L 668.222 247.748 Q 666.86 247.748 665.119 248.108 L 665.119 248.108 L 665.119 248.108 Q 663.377 248.469 661.455 249.35 L 661.455 249.35 L 661.455 249.35 Q 659.533 250.23 657.551 251.712 L 657.551 251.712 L 657.551 251.712 Q 655.569 253.193 653.688 255.436 L 653.688 255.436 L 653.688 255.436 Q 650.925 258.719 649.443 261.982 L 649.443 261.982 L 649.443 261.982 Q 647.962 265.245 647.962 267.928 L 647.962 267.928 L 647.962 267.928 Q 647.962 270.53 649.283 271.872 L 649.283 271.872 L 649.283 271.872 Q 650.604 273.213 652.887 273.213 L 652.887 273.213 L 652.887 273.213 Q 655.289 273.213 657.992 271.731 L 657.992 271.731 L 657.992 271.731 Q 660.694 270.25 663.337 267.808 Z  M 638.152 308.047 L 638.152 308.047 L 638.152 308.047 Q 639.674 308.047 641.315 306.926 L 641.315 306.926 L 641.315 306.926 Q 642.957 305.805 644.639 303.863 L 644.639 303.863 L 644.639 303.863 Q 646.32 301.921 647.962 299.358 L 647.962 299.358 L 647.962 299.358 Q 649.604 296.796 651.205 293.893 L 651.205 293.893 L 651.205 293.893 Q 652.807 290.99 654.268 287.947 L 654.268 287.947 L 654.268 287.947 Q 655.729 284.904 657.051 281.981 L 657.051 281.981 L 657.051 281.981 Q 651.085 285.104 646.861 288.488 L 646.861 288.488 L 646.861 288.488 Q 642.637 291.871 639.954 294.954 L 639.954 294.954 L 639.954 294.954 Q 637.271 298.037 636.05 300.52 L 636.05 300.52 L 636.05 300.52 Q 634.829 303.002 634.829 304.323 L 634.829 304.323 L 634.829 304.323 Q 634.829 305.965 635.55 307.006 L 635.55 307.006 L 635.55 307.006 Q 636.271 308.047 638.152 308.047 Z  M 700.974 238.059 L 700.974 238.059 L 700.974 238.059 Q 700.974 238.859 700.573 239.72 L 700.573 239.72 L 700.573 239.72 Q 700.173 240.581 699.552 241.262 L 699.552 241.262 L 699.552 241.262 Q 698.932 241.942 698.171 242.383 L 698.171 242.383 L 698.171 242.383 Q 697.41 242.823 696.649 242.823 L 696.649 242.823 L 696.649 242.823 Q 695.969 242.823 695.608 242.323 L 695.608 242.323 L 695.608 242.323 Q 695.248 241.822 695.248 241.102 L 695.248 241.102 L 695.248 241.102 Q 695.248 240.461 695.488 239.58 L 695.488 239.58 L 695.488 239.58 Q 695.729 238.699 696.209 237.918 L 696.209 237.918 L 696.209 237.918 Q 696.689 237.138 697.37 236.577 L 697.37 236.577 L 697.37 236.577 Q 698.051 236.017 698.932 236.017 L 698.932 236.017 L 698.932 236.017 Q 699.772 236.017 700.373 236.657 L 700.373 236.657 L 700.373 236.657 Q 700.974 237.298 700.974 238.059 Z  M 692.205 246.387 L 693.486 246.947 L 693.486 246.947 Q 692.966 247.988 692.025 249.69 L 692.025 249.69 L 692.025 249.69 Q 691.084 251.392 690.003 253.414 L 690.003 253.414 L 690.003 253.414 Q 688.922 255.436 687.801 257.658 L 687.801 257.658 L 687.801 257.658 Q 686.68 259.88 685.779 261.982 L 685.779 261.982 L 685.779 261.982 Q 684.878 264.084 684.317 265.926 L 684.317 265.926 L 684.317 265.926 Q 683.757 267.768 683.757 269.049 L 683.757 269.049 L 683.757 269.049 Q 683.757 270.21 684.237 270.63 L 684.237 270.63 L 684.237 270.63 Q 684.718 271.051 685.599 271.051 L 685.599 271.051 L 685.599 271.051 Q 687.24 271.051 688.802 269.97 L 688.802 269.97 L 688.802 269.97 Q 690.363 268.889 691.905 267.147 L 691.905 267.147 L 691.905 267.147 Q 693.446 265.405 694.928 263.163 L 694.928 263.163 L 694.928 263.163 Q 696.409 260.921 697.891 258.639 L 697.891 258.639 L 699.332 259.76 L 699.332 259.76 Q 698.171 261.842 696.709 264.204 L 696.709 264.204 L 696.709 264.204 Q 695.248 266.566 693.446 268.588 L 693.446 268.588 L 693.446 268.588 Q 691.645 270.61 689.482 271.932 L 689.482 271.932 L 689.482 271.932 Q 687.32 273.253 684.758 273.253 L 684.758 273.253 L 684.758 273.253 Q 682.355 273.253 681.074 271.812 L 681.074 271.812 L 681.074 271.812 Q 679.793 270.37 679.793 268.088 L 679.793 268.088 L 679.793 268.088 Q 679.793 265.405 681.034 262.482 L 681.034 262.482 L 681.034 262.482 Q 682.275 259.56 684.137 256.697 L 684.137 256.697 L 684.137 256.697 Q 685.999 253.834 688.181 251.191 L 688.181 251.191 L 688.181 251.191 Q 690.363 248.549 692.205 246.387 L 692.205 246.387 L 692.205 246.387 Z  M 720.713 255.396 L 720.713 255.396 L 720.713 255.396 Q 719.191 255.035 718.09 254.375 L 718.09 254.375 L 718.09 254.375 Q 716.989 253.714 716.309 252.873 L 716.309 252.873 L 716.309 252.873 Q 715.628 252.032 715.308 251.091 L 715.308 251.091 L 715.308 251.091 Q 714.987 250.15 714.987 249.229 L 714.987 249.229 L 714.987 249.229 Q 714.987 247.228 716.108 246.126 L 716.108 246.126 L 716.108 246.126 Q 717.229 245.025 718.911 245.025 L 718.911 245.025 L 718.911 245.025 Q 720.032 245.025 720.833 245.606 L 720.833 245.606 L 720.833 245.606 Q 721.634 246.187 722.154 247.147 L 722.154 247.147 L 722.154 247.147 Q 722.675 248.108 722.915 249.37 L 722.915 249.37 L 722.915 249.37 Q 723.155 250.631 723.155 251.992 L 723.155 251.992 L 723.155 251.992 Q 723.155 252.913 723.075 253.814 L 723.075 253.814 L 723.075 253.814 Q 722.995 254.715 722.795 255.636 L 722.795 255.636 L 722.795 255.636 Q 721.834 259.96 719.972 263.463 L 719.972 263.463 L 719.972 263.463 Q 718.11 266.967 715.768 269.469 L 715.768 269.469 L 715.768 269.469 Q 713.426 271.972 710.783 273.313 L 710.783 273.313 L 710.783 273.313 Q 708.141 274.654 705.618 274.654 L 705.618 274.654 L 705.618 274.654 Q 703.896 274.654 702.355 274.174 L 702.355 274.174 L 702.355 274.174 Q 700.813 273.693 699.632 272.572 L 699.632 272.572 L 699.632 272.572 Q 698.451 271.451 697.771 269.629 L 697.771 269.629 L 697.771 269.629 Q 697.09 267.808 697.09 265.125 L 697.09 265.125 L 697.09 265.125 Q 697.09 261.802 698.391 257.197 L 698.391 257.197 L 698.391 257.197 Q 699.692 252.593 702.815 246.387 L 702.815 246.387 L 702.815 246.387 Q 707.3 237.698 711.824 230.812 L 711.824 230.812 L 711.824 230.812 Q 713.746 227.889 715.868 225.086 L 715.868 225.086 L 715.868 225.086 Q 717.99 222.283 720.132 220.081 L 720.132 220.081 L 720.132 220.081 Q 722.274 217.879 724.376 216.538 L 724.376 216.538 L 724.376 216.538 Q 726.479 215.196 728.36 215.196 L 728.36 215.196 L 728.36 215.196 Q 728.601 215.196 729.221 215.276 L 729.221 215.276 L 729.221 215.276 Q 729.842 215.356 730.482 215.697 L 730.482 215.697 L 730.482 215.697 Q 731.123 216.037 731.624 216.738 L 731.624 216.738 L 731.624 216.738 Q 732.124 217.438 732.124 218.68 L 732.124 218.68 L 732.124 218.68 Q 732.124 220.161 731.343 222.423 L 731.343 222.423 L 731.343 222.423 Q 730.563 224.686 729.021 227.428 L 729.021 227.428 L 729.021 227.428 Q 727.479 230.171 725.217 233.274 L 725.217 233.274 L 725.217 233.274 Q 722.955 236.377 720.012 239.5 L 720.012 239.5 L 720.012 239.5 Q 717.069 242.623 713.486 245.626 L 713.486 245.626 L 713.486 245.626 Q 709.902 248.629 705.698 251.231 L 705.698 251.231 L 705.698 251.231 Q 704.297 254.274 703.356 256.737 L 703.356 256.737 L 703.356 256.737 Q 702.415 259.199 701.854 261.181 L 701.854 261.181 L 701.854 261.181 Q 701.294 263.163 701.054 264.685 L 701.054 264.685 L 701.054 264.685 Q 700.813 266.206 700.813 267.327 L 700.813 267.327 L 700.813 267.327 Q 700.813 268.889 701.234 269.91 L 701.234 269.91 L 701.234 269.91 Q 701.654 270.931 702.375 271.511 L 702.375 271.511 L 702.375 271.511 Q 703.096 272.092 704.017 272.332 L 704.017 272.332 L 704.017 272.332 Q 704.938 272.572 705.938 272.572 L 705.938 272.572 L 705.938 272.572 Q 707.82 272.572 709.602 271.611 L 709.602 271.611 L 709.602 271.611 Q 711.384 270.65 712.985 269.109 L 712.985 269.109 L 712.985 269.109 Q 714.587 267.567 715.928 265.646 L 715.928 265.646 L 715.928 265.646 Q 717.27 263.724 718.271 261.822 L 718.271 261.822 L 718.271 261.822 Q 719.271 259.92 719.912 258.218 L 719.912 258.218 L 719.912 258.218 Q 720.553 256.517 720.713 255.396 Z  M 707.38 247.588 L 707.38 247.588 L 707.38 247.588 Q 711.063 245.065 714.167 242.263 L 714.167 242.263 L 714.167 242.263 Q 717.27 239.46 719.792 236.637 L 719.792 236.637 L 719.792 236.637 Q 722.314 233.814 724.236 231.112 L 724.236 231.112 L 724.236 231.112 Q 726.158 228.409 727.439 226.047 L 727.439 226.047 L 727.439 226.047 Q 728.721 223.685 729.381 221.823 L 729.381 221.823 L 729.381 221.823 Q 730.042 219.961 730.042 218.8 L 730.042 218.8 L 730.042 218.8 Q 730.042 217.759 729.281 217.759 L 729.281 217.759 L 729.281 217.759 Q 727.84 217.759 725.818 219.32 L 725.818 219.32 L 725.818 219.32 Q 723.796 220.882 721.133 224.405 L 721.133 224.405 L 721.133 224.405 Q 718.471 227.929 715.047 233.614 L 715.047 233.614 L 715.047 233.614 Q 711.624 239.3 707.38 247.588 Z  M 720.993 253.313 L 720.993 253.313 L 720.993 253.313 Q 721.033 252.953 721.053 252.593 L 721.053 252.593 L 721.053 252.593 Q 721.073 252.232 721.073 251.912 L 721.073 251.912 L 721.073 251.912 Q 721.073 249.75 720.513 248.429 L 720.513 248.429 L 720.513 248.429 Q 719.952 247.107 718.911 247.107 L 718.911 247.107 L 718.911 247.107 Q 718.671 247.107 718.371 247.167 L 718.371 247.167 L 718.371 247.167 Q 718.07 247.228 717.77 247.448 L 717.77 247.448 L 717.77 247.448 Q 717.47 247.668 717.27 248.068 L 717.27 248.068 L 717.27 248.068 Q 717.069 248.469 717.069 249.109 L 717.069 249.109 L 717.069 249.109 Q 717.069 250.751 718.21 251.812 L 718.21 251.812 L 718.21 251.812 Q 719.352 252.873 720.993 253.313 Z  M 755.667 215.316 L 755.667 215.316 L 755.667 215.316 Q 757.068 215.316 758.009 215.997 L 758.009 215.997 L 758.009 215.997 Q 758.95 216.678 758.95 218.479 L 758.95 218.479 L 758.95 218.479 Q 758.95 219.721 758.45 221.442 L 758.45 221.442 L 758.45 221.442 Q 757.949 223.164 757.088 225.186 L 757.088 225.186 L 757.088 225.186 Q 756.228 227.208 755.066 229.43 L 755.066 229.43 L 755.066 229.43 Q 753.905 231.652 752.564 233.854 L 752.564 233.854 L 752.564 233.854 Q 751.223 236.057 749.761 238.139 L 749.761 238.139 L 749.761 238.139 Q 748.3 240.221 746.858 241.982 L 746.858 241.982 L 746.858 241.982 Q 743.976 245.546 741.874 247.988 L 741.874 247.988 L 741.874 247.988 Q 739.771 250.431 738.25 252.132 L 738.25 252.132 L 738.25 252.132 Q 736.729 253.834 735.688 254.895 L 735.688 254.895 L 735.688 254.895 Q 734.646 255.956 733.846 256.717 L 733.846 256.717 L 733.846 256.717 Q 733.045 257.478 732.364 258.098 L 732.364 258.098 L 732.364 258.098 Q 731.684 258.719 730.963 259.479 L 730.963 259.479 L 730.963 259.479 Q 730.643 261.001 730.663 262.382 L 730.663 262.382 L 730.663 262.382 Q 730.683 263.764 730.683 264.925 L 730.683 264.925 L 730.683 264.925 Q 730.683 268.408 731.804 270.09 L 731.804 270.09 L 731.804 270.09 Q 732.925 271.771 734.967 271.771 L 734.967 271.771 L 734.967 271.771 Q 736.328 271.771 737.709 271.071 L 737.709 271.071 L 737.709 271.071 Q 739.091 270.37 740.452 269.249 L 740.452 269.249 L 740.452 269.249 Q 741.813 268.128 743.095 266.707 L 743.095 266.707 L 743.095 266.707 Q 744.376 265.285 745.517 263.824 L 745.517 263.824 L 745.517 263.824 Q 746.658 262.362 747.579 261.001 L 747.579 261.001 L 747.579 261.001 Q 748.5 259.64 749.181 258.639 L 749.181 258.639 L 750.662 259.76 L 750.662 259.76 Q 750.542 259.92 749.881 261.021 L 749.881 261.021 L 749.881 261.021 Q 749.221 262.122 748.14 263.684 L 748.14 263.684 L 748.14 263.684 Q 747.059 265.245 745.577 267.027 L 745.577 267.027 L 745.577 267.027 Q 744.096 268.809 742.374 270.33 L 742.374 270.33 L 742.374 270.33 Q 740.652 271.852 738.75 272.853 L 738.75 272.853 L 738.75 272.853 Q 736.849 273.854 734.887 273.854 L 734.887 273.854 L 734.887 273.854 Q 733.245 273.854 731.744 273.233 L 731.744 273.233 L 731.744 273.233 Q 730.242 272.612 729.101 271.271 L 729.101 271.271 L 729.101 271.271 Q 727.96 269.93 727.259 267.848 L 727.259 267.848 L 727.259 267.848 Q 726.559 265.766 726.559 262.843 L 726.559 262.843 L 726.559 262.843 Q 726.559 259.199 727.419 255.215 L 727.419 255.215 L 727.419 255.215 Q 728.28 251.231 729.762 247.208 L 729.762 247.208 L 729.762 247.208 Q 731.243 243.184 733.245 239.26 L 733.245 239.26 L 733.245 239.26 Q 735.247 235.336 737.509 231.792 L 737.509 231.792 L 737.509 231.792 Q 739.771 228.249 742.234 225.226 L 742.234 225.226 L 742.234 225.226 Q 744.696 222.203 747.079 220.001 L 747.079 220.001 L 747.079 220.001 Q 749.461 217.799 751.663 216.558 L 751.663 216.558 L 751.663 216.558 Q 753.865 215.316 755.667 215.316 Z  M 731.684 255.916 L 731.684 255.916 L 731.684 255.916 Q 735.087 252.393 738.27 248.769 L 738.27 248.769 L 738.27 248.769 Q 741.453 245.146 744.236 241.602 L 744.236 241.602 L 744.236 241.602 Q 747.019 238.059 749.341 234.715 L 749.341 234.715 L 749.341 234.715 Q 751.663 231.372 753.305 228.409 L 753.305 228.409 L 753.305 228.409 Q 754.946 225.446 755.867 223.004 L 755.867 223.004 L 755.867 223.004 Q 756.788 220.562 756.788 218.8 L 756.788 218.8 L 756.788 218.8 Q 756.788 218.479 756.468 217.939 L 756.468 217.939 L 756.468 217.939 Q 756.147 217.398 755.707 217.398 L 755.707 217.398 L 755.707 217.398 Q 754.466 217.398 752.424 219.04 L 752.424 219.04 L 752.424 219.04 Q 750.382 220.682 748 223.504 L 748 223.504 L 748 223.504 Q 745.617 226.327 743.075 230.091 L 743.075 230.091 L 743.075 230.091 Q 740.532 233.854 738.29 238.139 L 738.29 238.139 L 738.29 238.139 Q 736.048 242.423 734.286 246.987 L 734.286 246.987 L 734.286 246.987 Q 732.524 251.552 731.684 255.916 Z  M 752.224 264.444 L 752.224 264.444 L 752.224 264.444 Q 752.144 264.925 752.104 265.405 L 752.104 265.405 L 752.104 265.405 Q 752.063 265.886 752.063 266.366 L 752.063 266.366 L 752.063 266.366 Q 752.063 267.808 752.484 269.109 L 752.484 269.109 L 752.484 269.109 Q 752.904 270.41 753.725 271.391 L 753.725 271.391 L 753.725 271.391 Q 754.546 272.372 755.767 272.933 L 755.767 272.933 L 755.767 272.933 Q 756.988 273.493 758.55 273.493 L 758.55 273.493 L 758.55 273.493 Q 763.795 273.493 768.68 269.93 L 768.68 269.93 L 768.68 269.93 Q 773.564 266.366 778.409 258.639 L 778.409 258.639 L 779.771 259.84 L 779.771 259.84 Q 777.128 264.244 774.405 267.267 L 774.405 267.267 L 774.405 267.267 Q 771.683 270.29 768.98 272.172 L 768.98 272.172 L 768.98 272.172 Q 766.277 274.054 763.675 274.895 L 763.675 274.895 L 763.675 274.895 Q 761.072 275.735 758.71 275.735 L 758.71 275.735 L 758.71 275.735 Q 756.988 275.735 755.066 275.255 L 755.066 275.255 L 755.066 275.255 Q 753.145 274.774 751.523 273.653 L 751.523 273.653 L 751.523 273.653 Q 749.901 272.532 748.84 270.65 L 748.84 270.65 L 748.84 270.65 Q 747.779 268.769 747.779 265.966 L 747.779 265.966 L 747.779 265.966 Q 747.779 262.963 748.8 260.18 L 748.8 260.18 L 748.8 260.18 Q 749.821 257.397 751.463 254.995 L 751.463 254.995 L 751.463 254.995 Q 753.104 252.593 755.227 250.611 L 755.227 250.611 L 755.227 250.611 Q 757.349 248.629 759.531 247.228 L 759.531 247.228 L 759.531 247.228 Q 761.713 245.826 763.795 245.045 L 763.795 245.045 L 763.795 245.045 Q 765.877 244.265 767.479 244.265 L 767.479 244.265 L 767.479 244.265 Q 768.52 244.265 769.601 244.585 L 769.601 244.585 L 769.601 244.585 Q 770.682 244.905 771.542 245.586 L 771.542 245.586 L 771.542 245.586 Q 772.403 246.267 772.944 247.388 L 772.944 247.388 L 772.944 247.388 Q 773.484 248.509 773.484 250.07 L 773.484 250.07 L 773.484 250.07 Q 773.484 252.192 772.503 254.054 L 772.503 254.054 L 772.503 254.054 Q 771.522 255.916 769.881 257.498 L 769.881 257.498 L 769.881 257.498 Q 768.239 259.079 766.077 260.34 L 766.077 260.34 L 766.077 260.34 Q 763.915 261.602 761.553 262.482 L 761.553 262.482 L 761.553 262.482 Q 759.19 263.363 756.788 263.884 L 756.788 263.884 L 756.788 263.884 Q 754.386 264.404 752.224 264.444 Z  M 752.544 262.723 L 752.544 262.723 L 752.544 262.723 Q 755.227 262.442 757.589 261.602 L 757.589 261.602 L 757.589 261.602 Q 759.951 260.761 761.913 259.54 L 761.913 259.54 L 761.913 259.54 Q 763.875 258.318 765.417 256.877 L 765.417 256.877 L 765.417 256.877 Q 766.958 255.436 767.999 253.954 L 767.999 253.954 L 767.999 253.954 Q 769.04 252.473 769.601 251.111 L 769.601 251.111 L 769.601 251.111 Q 770.161 249.75 770.161 248.669 L 770.161 248.669 L 770.161 248.669 Q 770.161 247.588 769.581 246.947 L 769.581 246.947 L 769.581 246.947 Q 769 246.307 768.199 246.307 L 768.199 246.307 L 768.199 246.307 Q 766.438 246.307 764.235 247.568 L 764.235 247.568 L 764.235 247.568 Q 762.033 248.829 759.831 251.051 L 759.831 251.051 L 759.831 251.051 Q 757.629 253.273 755.687 256.276 L 755.687 256.276 L 755.687 256.276 Q 753.745 259.279 752.544 262.723 Z " fill="rgb(0,0,0)"/><path d=" M 814.18 210.192 C 813.921 210.226 813.685 210.361 813.524 210.567 L 809.524 215.567 L 808.961 216.255 L 809.586 216.911 L 810.024 217.348 C 805.914 221.247 801.387 222.192 793.305 222.192 L 792.492 222.192 L 792.336 223.005 C 790.376 232.817 783.367 252.848 783.367 252.848 L 782.68 254.817 L 784.649 254.129 C 784.649 254.129 804.68 247.122 814.492 245.161 L 815.305 245.004 L 815.305 244.192 C 815.305 236.106 816.25 231.582 820.149 227.473 L 820.586 227.911 L 821.18 228.473 L 821.868 228.036 L 827.868 224.036 C 828.17 223.835 828.341 223.488 828.318 223.126 C 828.294 222.765 828.08 222.443 827.755 222.282 C 827.43 222.122 827.044 222.147 826.742 222.348 L 821.43 225.879 L 811.649 216.099 L 815.086 211.817 C 815.347 211.499 815.386 211.055 815.186 210.696 C 814.986 210.337 814.587 210.138 814.18 210.192 Z  M 811.43 218.755 L 818.743 226.067 C 814.563 230.457 813.41 235.602 813.336 243.411 C 805.114 245.153 793.063 249.169 788.055 250.879 L 802.493 236.442 C 803.02 236.723 803.61 236.911 804.243 236.911 C 806.311 236.902 807.984 235.228 807.993 233.161 C 807.993 231.102 806.301 229.442 804.243 229.442 C 802.183 229.442 800.493 231.102 800.493 233.161 C 800.493 233.844 800.7 234.481 801.023 235.036 L 786.619 249.442 C 788.329 244.434 792.345 232.383 794.087 224.161 C 801.892 224.087 807.04 222.934 811.431 218.754 L 811.43 218.755 Z  M 804.242 231.442 C 805.219 231.442 805.992 232.184 805.992 233.161 C 805.992 234.137 805.219 234.911 804.242 234.911 C 803.812 234.911 803.418 234.786 803.117 234.536 C 803.08 234.49 803.038 234.449 802.992 234.411 C 802.666 234.077 802.486 233.627 802.492 233.161 C 802.492 232.184 803.266 231.442 804.242 231.442 Z " fill="rgb(0,0,0)"/></g></svg>